<?xml version="1.0" standalone="no"?>
<!DOCTYPE svg PUBLIC "-//W3C//DTD SVG 20010904//EN"
 "http://www.w3.org/TR/2001/REC-SVG-20010904/DTD/svg10.dtd">
<svg version="1.0" xmlns="http://www.w3.org/2000/svg"
 width="170.000000pt" height="170.000000pt" viewBox="0 0 170.000000 170.000000"
 preserveAspectRatio="xMidYMid meet">
<metadata>
Created by potrace 1.14, written by Peter Selinger 2001-2017
</metadata>
<g transform="translate(0.000000,170.000000) scale(0.100000,-0.100000)"
fill="#000000" stroke="none">
<path d="M152 1568 c-5 -7 -13 -43 -16 -80 -4 -37 -9 -77 -11 -90 -7 -42 -30
-258 -39 -358 -5 -53 -15 -149 -22 -205 -3 -22 -7 -65 -9 -95 -3 -30 -7 -73
-10 -95 -2 -22 -9 -92 -15 -155 -18 -204 -20 -224 -26 -261 -5 -34 -3 -37 23
-40 15 -2 38 -3 49 -1 23 3 24 8 40 172 4 36 12 76 19 90 28 54 94 94 206 124
30 8 66 19 81 25 26 10 29 8 48 -29 11 -22 40 -109 65 -193 54 -188 79 -252
96 -252 7 0 21 14 31 32 l19 31 -64 251 c-36 137 -62 253 -58 256 7 8 69 35
91 40 8 2 38 11 66 18 l52 15 76 -39 c72 -37 145 -61 226 -74 19 -3 60 -10 90
-15 30 -5 84 -12 120 -15 135 -12 185 -20 253 -42 60 -19 63 -47 12 -92 -55
-48 -236 -131 -322 -147 -60 -12 -272 -86 -284 -100 -18 -22 -19 -41 -3 -55
46 -38 428 83 625 197 35 20 80 54 100 76 30 33 36 45 32 75 -6 55 -31 89 -82
112 -76 34 -130 44 -296 56 -38 3 -83 7 -100 10 -16 2 -53 7 -81 10 -200 22
-300 85 -309 197 -11 139 189 396 377 483 67 31 89 31 137 0 43 -29 79 -28
121 3 43 32 46 101 6 120 -28 13 -123 6 -195 -14 -216 -61 -464 -280 -528
-467 -10 -31 -17 -82 -18 -125 l0 -74 -90 -29 c-49 -16 -91 -29 -92 -29 -8 0
-82 198 -194 515 -41 118 -75 193 -112 248 -20 29 -66 37 -85 15z m126 -315
c31 -75 67 -187 105 -328 55 -201 54 -186 9 -227 -43 -39 -125 -74 -187 -79
l-40 -4 1 50 c1 62 14 247 18 255 2 3 7 49 10 102 4 53 9 106 11 116 2 11 4
44 6 73 4 100 34 118 67 42z"/>
</g>
</svg>
