<?xml version="1.0" encoding="UTF-8"?><svg id="a" xmlns="http://www.w3.org/2000/svg" viewBox="0 0 200 47"><defs><style>.b{fill:#fff;}</style></defs><path class="b" d="M82.84,38.16c.09-.42,.16-.96,.22-1.62,.06-.66,.14-1.53,.25-2.61,.1-1.08,.22-2.41,.36-4,.13-1.59,.32-3.52,.56-5.79,.24-2.27,.52-4.95,.83-8.02,.31-3.07,.73-6.64,1.24-10.71,.03-.3,.17-.48,.43-.54,.25-.06,.49-.09,.7-.09,.33,0,.6,.12,.81,.36,.21,.24,.4,.51,.56,.81,.16,.3,.32,.61,.47,.94,.15,.33,.31,.6,.49,.81,.3,.69,.61,1.48,.92,2.38s.65,1.86,1.01,2.88c.36,1.02,.72,2.04,1.08,3.08s.72,2.04,1.08,3.01c.36,.97,.7,1.87,1.01,2.7,.31,.82,.61,1.5,.88,2.04,.33-.03,.79-.16,1.39-.38,.6-.22,1.24-.44,1.93-.65,.69-.21,1.36-.37,2.02-.49,.66-.12,1.21-.13,1.66-.02,.45,.11,.74,.37,.88,.79,.13,.42,.02,1.08-.34,1.98-.21,0-.4-.04-.58-.11-.18-.07-.36-.15-.54-.22-.18-.07-.37-.15-.56-.22-.2-.07-.41-.11-.65-.11-.15,0-.49,.08-1.01,.25-.52,.17-1.09,.34-1.68,.54-.6,.2-1.12,.39-1.57,.58-.45,.2-.67,.34-.67,.43l3.1,12.17-1.17,1.71c-.51-.87-.94-1.86-1.28-2.99-.34-1.12-.67-2.25-.97-3.37-.3-1.12-.61-2.17-.92-3.14-.31-.97-.71-1.79-1.19-2.45-.63,.3-1.38,.55-2.25,.76-.87,.21-1.71,.47-2.52,.79s-1.5,.73-2.09,1.26c-.58,.52-.94,1.24-1.06,2.13-.06,.36-.11,.84-.16,1.44-.04,.6-.1,1.17-.16,1.71-.09,.66-.17,1.33-.22,2.02h-2.29Zm5.17-26.46l-.09,.76c-.03,.51-.08,1.1-.13,1.77-.06,.67-.13,1.36-.2,2.07-.08,.7-.13,1.3-.16,1.77-.15,1.68-.31,3.33-.47,4.96-.17,1.63-.25,3.3-.25,5.01,.57,0,1.17-.07,1.82-.22,.64-.15,1.26-.35,1.86-.61,.6-.25,1.15-.57,1.64-.94,.49-.37,.88-.8,1.15-1.28-.24-1.05-.5-2.13-.79-3.26-.29-1.12-.59-2.26-.92-3.41-.33-1.15-.69-2.28-1.08-3.39-.39-1.11-.81-2.19-1.26-3.23-.03-.03-.13-.1-.31-.2-.18-.1-.45-.04-.81,.2Z"/><path class="b" d="M105.07,37.22c.06-.3,.43-.58,1.12-.85,.69-.27,1.54-.55,2.56-.85,1.02-.3,2.14-.63,3.37-.99,1.23-.36,2.41-.76,3.55-1.21,1.14-.45,2.18-.96,3.12-1.53,.94-.57,1.64-1.23,2.09-1.98,0-.45-.29-.79-.88-1.03-.58-.24-1.36-.44-2.34-.61-.97-.16-2.08-.3-3.32-.4-1.24-.1-2.52-.25-3.82-.45-1.3-.19-2.58-.43-3.82-.72-1.24-.28-2.35-.69-3.32-1.21-.97-.52-1.75-1.19-2.34-2-.58-.81-.88-1.8-.88-2.96s.25-2.33,.76-3.48c.51-1.15,1.19-2.27,2.04-3.35s1.83-2.08,2.92-3.01c1.09-.93,2.24-1.74,3.44-2.43,1.2-.69,2.39-1.23,3.57-1.62,1.18-.39,2.28-.58,3.3-.58,.27,0,.55,0,.85-.02,.3-.01,.56,0,.79,.04s.41,.16,.56,.34c.15,.18,.22,.45,.22,.81,0,.87-.29,1.49-.85,1.86-.57,.38-1.26,.56-2.07,.56l-1.75-1.26c-.69,0-1.45,.2-2.27,.58-.82,.39-1.66,.91-2.52,1.55-.85,.64-1.68,1.39-2.49,2.22-.81,.84-1.52,1.71-2.13,2.61-.61,.9-1.11,1.8-1.48,2.7-.38,.9-.56,1.71-.56,2.43,0,1.05,.29,1.89,.88,2.54,.58,.64,1.36,1.15,2.34,1.53,.97,.38,2.09,.65,3.35,.83s2.53,.33,3.82,.45c1.29,.12,2.56,.23,3.82,.34,1.26,.11,2.37,.29,3.35,.56,.97,.27,1.75,.63,2.34,1.08s.88,1.06,.88,1.84c.33,.48,.26,1.03-.2,1.64-.46,.61-1.18,1.23-2.16,1.84-.97,.61-2.13,1.23-3.46,1.84-1.33,.61-2.7,1.17-4.11,1.66-1.41,.49-2.77,.91-4.09,1.26-1.32,.34-2.44,.56-3.37,.65-.27,0-.5-.09-.7-.27-.2-.18-.23-.49-.11-.94Z"/></svg>